<svg xmlns="http://www.w3.org/2000/svg" viewBox="0 0 199.25 200.49"><defs><style>.cls-1{fill:none;}.cls-1,.cls-2,.cls-3,.cls-4{stroke:#fff;stroke-miterlimit:10;}.cls-2,.cls-3,.cls-4,.cls-5,.cls-6{fill:#fff;}.cls-3{stroke-width:0.75px;}.cls-4{stroke-width:0.25px;}.cls-6{font-size:7px;font-family:MyriadPro-Regular, Myriad Pro;}</style></defs><g id="cercle"><circle class="cls-1" cx="98.27" cy="96.7" r="89"/></g><g id="_10p" data-name="10p"><line class="cls-2" x1="188.25" y1="96.66" x2="8.25" y2="96.66"/><line class="cls-2" x1="171.06" y1="43.76" x2="25.44" y2="149.56"/><line class="cls-2" x1="126.06" y1="11.06" x2="70.44" y2="182.25"/><line class="cls-2" x1="70.44" y1="11.06" x2="126.06" y2="182.25"/><line class="cls-2" x1="25.44" y1="43.76" x2="171.06" y2="149.56"/></g><g id="_5p" data-name="5p"><line class="cls-3" x1="183.84" y1="68.84" x2="12.65" y2="124.47"/><line class="cls-3" x1="151.15" y1="23.84" x2="45.35" y2="169.47"/><line class="cls-3" x1="98.25" y1="6.66" x2="98.25" y2="186.66"/><line class="cls-3" x1="45.35" y1="23.84" x2="151.15" y2="169.47"/><line class="cls-3" x1="12.65" y1="68.84" x2="183.84" y2="124.47"/></g><g id="_1p" data-name="1p"><line class="cls-4" x1="181.93" y1="63.53" x2="14.57" y2="129.79"/><line class="cls-4" x1="146.47" y1="20.67" x2="50.03" y2="172.65"/><line class="cls-4" x1="92.6" y1="6.83" x2="103.9" y2="186.48"/><line class="cls-4" x1="40.88" y1="27.31" x2="155.62" y2="166"/><line class="cls-4" x1="11.08" y1="74.27" x2="185.42" y2="119.04"/><line class="cls-4" x1="179.68" y1="58.34" x2="16.82" y2="134.98"/><line class="cls-4" x1="141.61" y1="17.79" x2="54.89" y2="175.52"/><line class="cls-4" x1="86.97" y1="7.37" x2="109.53" y2="185.95"/><line class="cls-4" x1="36.64" y1="31.05" x2="159.86" y2="162.26"/><line class="cls-4" x1="9.84" y1="79.79" x2="186.66" y2="113.52"/><line class="cls-4" x1="177.12" y1="53.3" x2="19.38" y2="140.01"/><line class="cls-4" x1="136.57" y1="15.22" x2="59.93" y2="178.09"/><line class="cls-4" x1="81.39" y1="8.25" x2="115.11" y2="185.06"/><line class="cls-4" x1="32.64" y1="35.05" x2="163.86" y2="158.27"/><line class="cls-4" x1="8.96" y1="85.38" x2="187.54" y2="107.94"/><line class="cls-4" x1="174.24" y1="48.43" x2="22.26" y2="144.88"/><line class="cls-4" x1="131.38" y1="12.98" x2="65.12" y2="180.34"/><line class="cls-4" x1="75.87" y1="9.48" x2="120.63" y2="183.83"/><line class="cls-4" x1="28.9" y1="39.29" x2="167.6" y2="154.02"/><line class="cls-4" x1="8.43" y1="91.01" x2="188.07" y2="102.31"/><line class="cls-4" x1="167.6" y1="39.29" x2="28.9" y2="154.02"/><line class="cls-4" x1="120.63" y1="9.48" x2="75.87" y2="183.83"/><line class="cls-4" x1="65.12" y1="12.98" x2="131.38" y2="180.34"/><line class="cls-4" x1="22.26" y1="48.43" x2="174.24" y2="144.88"/><line class="cls-4" x1="8.43" y1="102.31" x2="188.07" y2="91.01"/><line class="cls-4" x1="163.86" y1="35.05" x2="32.64" y2="158.27"/><line class="cls-4" x1="115.11" y1="8.25" x2="81.39" y2="185.06"/><line class="cls-4" x1="59.93" y1="15.22" x2="136.57" y2="178.09"/><line class="cls-4" x1="19.38" y1="53.3" x2="177.12" y2="140.01"/><line class="cls-4" x1="8.96" y1="107.94" x2="187.54" y2="85.38"/><line class="cls-4" x1="159.86" y1="31.05" x2="36.64" y2="162.26"/><line class="cls-4" x1="109.53" y1="7.37" x2="86.97" y2="185.95"/><line class="cls-4" x1="54.89" y1="17.79" x2="141.61" y2="175.52"/><line class="cls-4" x1="16.82" y1="58.34" x2="179.68" y2="134.98"/><line class="cls-4" x1="9.84" y1="113.52" x2="186.66" y2="79.79"/><line class="cls-4" x1="155.62" y1="27.31" x2="40.88" y2="166"/><line class="cls-4" x1="103.9" y1="6.83" x2="92.6" y2="186.48"/><line class="cls-4" x1="50.03" y1="20.67" x2="146.47" y2="172.65"/><line class="cls-4" x1="14.57" y1="63.53" x2="181.93" y2="129.79"/><line class="cls-4" x1="11.08" y1="119.04" x2="185.42" y2="74.27"/></g><g id="_10m" data-name="10m"><path class="cls-5" d="M194.19,97.78c0,1.47-.58,2.39-1.67,2.39s-1.6-1-1.61-2.34.6-2.37,1.67-2.37S194.19,96.44,194.19,97.78Zm-2.42,0c0,1.11.31,1.68.78,1.68s.77-.62.77-1.71-.25-1.68-.77-1.68S191.77,96.69,191.77,97.83Z" transform="translate(-0.96 -0.97)"/><path class="cls-5" d="M172.32,153.32h0l-.83.42-.15-.65,1.11-.55h.72v4.55h-.84Z" transform="translate(-0.96 -0.97)"/><path class="cls-5" d="M177.94,154.78c0,1.47-.57,2.39-1.66,2.39s-1.61-1-1.62-2.34.6-2.37,1.67-2.37S177.94,153.45,177.94,154.78Zm-2.41.05c0,1.11.3,1.68.77,1.68s.77-.62.77-1.71-.24-1.68-.76-1.68S175.53,153.69,175.53,154.83Z" transform="translate(-0.96 -0.97)"/><path class="cls-5" d="M125,190.09v-.52l.54-.5c1.08-1,1.58-1.54,1.59-2.14a.72.72,0,0,0-.82-.77,1.68,1.68,0,0,0-1,.38l-.25-.61a2.28,2.28,0,0,1,1.4-.47,1.36,1.36,0,0,1,1.5,1.38c0,.8-.58,1.45-1.37,2.18l-.4.35h1.87v.71Z" transform="translate(-0.96 -0.97)"/><path class="cls-5" d="M131.94,187.78c0,1.47-.57,2.39-1.66,2.39s-1.61-1-1.62-2.34.6-2.37,1.67-2.37S131.94,186.45,131.94,187.78Zm-2.41.05c0,1.11.3,1.68.77,1.68s.77-.62.77-1.71-.24-1.68-.76-1.68S129.53,186.69,129.53,187.83Z" transform="translate(-0.96 -0.97)"/><path class="cls-5" d="M66.55,189.39a2.21,2.21,0,0,0,1,.28c.65,0,.92-.37.92-.73,0-.53-.51-.77-1-.77h-.39v-.63h.38c.4,0,.9-.18.9-.63s-.22-.57-.72-.57a1.94,1.94,0,0,0-.94.28l-.19-.62a2.6,2.6,0,0,1,1.31-.35c.94,0,1.42.52,1.42,1.12a1.11,1.11,0,0,1-.84,1.06h0a1.15,1.15,0,0,1,1,1.14c0,.77-.64,1.38-1.77,1.38a2.37,2.37,0,0,1-1.27-.32Z" transform="translate(-0.96 -0.97)"/><path class="cls-5" d="M73.34,188c0,1.46-.57,2.38-1.66,2.38s-1.61-1-1.61-2.34.6-2.37,1.66-2.37S73.34,186.64,73.34,188Zm-2.41,0c0,1.11.3,1.68.78,1.68s.77-.61.77-1.7-.25-1.69-.77-1.69S70.93,186.88,70.93,188Z" transform="translate(-0.96 -0.97)"/><path class="cls-5" d="M19.89,155.16V154H17.83v-.56l1.86-2.84h1v2.74h.58V154h-.58v1.16Zm0-1.82v-1.23c0-.26,0-.52,0-.79h0c-.14.28-.26.51-.4.76l-.83,1.25h1.23Z" transform="translate(-0.96 -0.97)"/><path class="cls-5" d="M25,152.85c0,1.46-.57,2.38-1.66,2.38s-1.61-.95-1.62-2.34.61-2.36,1.67-2.36S25,151.51,25,152.85Zm-2.41,0c0,1.11.3,1.69.78,1.69s.77-.62.77-1.71-.25-1.68-.77-1.68S22.55,151.75,22.55,152.89Z" transform="translate(-0.96 -0.97)"/><path class="cls-5" d="M3.87,96.25H2.12L2,97.16l.33,0a1.93,1.93,0,0,1,1.1.3A1.28,1.28,0,0,1,4,98.59a1.66,1.66,0,0,1-1.84,1.58A2.54,2.54,0,0,1,1,99.9l.18-.65a2.4,2.4,0,0,0,1,.24.89.89,0,0,0,1-.83c0-.52-.39-.87-1.29-.87a3.65,3.65,0,0,0-.63,0l.3-2.3H3.87Z" transform="translate(-0.96 -0.97)"/><path class="cls-5" d="M7.94,97.78c0,1.47-.57,2.39-1.66,2.39s-1.61-1-1.62-2.34.6-2.37,1.67-2.37S7.94,96.44,7.94,97.78Zm-2.41,0c0,1.11.3,1.68.77,1.68s.77-.62.77-1.71-.24-1.68-.76-1.68S5.53,96.69,5.53,97.83Z" transform="translate(-0.96 -0.97)"/><path class="cls-5" d="M21.74,41.15a3.47,3.47,0,0,0-.43,0,1.61,1.61,0,0,0-1.53,1.33h0a1.29,1.29,0,0,1,1-.44,1.37,1.37,0,0,1,1.4,1.48,1.59,1.59,0,0,1-1.61,1.63,1.74,1.74,0,0,1-1.72-2,2.78,2.78,0,0,1,.8-2,2.6,2.6,0,0,1,1.62-.67,3.73,3.73,0,0,1,.43,0Zm-.4,2.44a.79.79,0,0,0-.79-.9.85.85,0,0,0-.75.47.65.65,0,0,0-.05.27c0,.6.3,1.09.86,1.09S21.34,44.14,21.34,43.59Z" transform="translate(-0.96 -0.97)"/><path class="cls-5" d="M25.94,42.78c0,1.47-.57,2.39-1.66,2.39s-1.61-1-1.62-2.34.6-2.37,1.67-2.37S25.94,41.44,25.94,42.78Zm-2.41,0c0,1.11.3,1.68.77,1.68s.77-.62.77-1.71-.24-1.68-.76-1.68S23.53,41.69,23.53,42.83Z" transform="translate(-0.96 -0.97)"/><path class="cls-5" d="M69.1,5.54v.55l-1.92,4h-.91l1.92-3.83H66V5.54Z" transform="translate(-0.96 -0.97)"/><path class="cls-5" d="M72.94,7.78c0,1.47-.57,2.39-1.66,2.39s-1.61-1-1.62-2.34.6-2.37,1.67-2.37S72.94,6.44,72.94,7.78Zm-2.41,0c0,1.11.3,1.68.77,1.68s.77-.62.77-1.71-.24-1.68-.76-1.68S70.53,6.69,70.53,7.83Z" transform="translate(-0.96 -0.97)"/><path class="cls-5" d="M124.91,8.92a1.26,1.26,0,0,1,.85-1.18v0a1.12,1.12,0,0,1-.69-1,1.35,1.35,0,0,1,1.52-1.25c1,0,1.43.59,1.43,1.15a1.14,1.14,0,0,1-.7,1v0a1.23,1.23,0,0,1,.87,1.15c0,.81-.69,1.36-1.66,1.36S124.91,9.56,124.91,8.92Zm2.4,0c0-.46-.34-.71-.85-.85a.82.82,0,0,0-.67.79.73.73,0,0,0,.77.74A.69.69,0,0,0,127.31,8.88Zm-1.42-2.21c0,.38.3.6.74.72a.75.75,0,0,0,.57-.69.66.66,0,0,0-1.31,0Z" transform="translate(-0.96 -0.97)"/><path class="cls-5" d="M131.94,7.78c0,1.47-.57,2.39-1.66,2.39s-1.61-1-1.62-2.34.6-2.37,1.67-2.37S131.94,6.44,131.94,7.78Zm-2.41,0c0,1.11.3,1.68.77,1.68s.77-.62.77-1.71-.24-1.68-.76-1.68S129.53,6.69,129.53,7.83Z" transform="translate(-0.96 -0.97)"/><path class="cls-5" d="M172.32,43.47a2,2,0,0,0,.48,0,1.73,1.73,0,0,0,.92-.35,1.67,1.67,0,0,0,.59-1h0a1.29,1.29,0,0,1-1,.4,1.34,1.34,0,0,1-1.38-1.41,1.61,1.61,0,0,1,1.64-1.63c1.06,0,1.62.83,1.62,1.94a2.78,2.78,0,0,1-.79,2.12,2.46,2.46,0,0,1-1.55.62,5.17,5.17,0,0,1-.52,0Zm.45-2.43a.75.75,0,0,0,.75.83.8.8,0,0,0,.73-.38.4.4,0,0,0,.06-.24c0-.62-.23-1.15-.79-1.15S172.77,40.49,172.77,41Z" transform="translate(-0.96 -0.97)"/><path class="cls-5" d="M178.94,41.78c0,1.47-.57,2.39-1.66,2.39s-1.61-1-1.62-2.34.6-2.37,1.67-2.37S178.94,40.44,178.94,41.78Zm-2.41,0c0,1.11.3,1.68.77,1.68s.77-.62.77-1.71-.24-1.68-.76-1.68S176.53,40.69,176.53,41.83Z" transform="translate(-0.96 -0.97)"/></g><g id="_5m" data-name="5m"><text class="cls-6" transform="translate(94.74 5.86)">75</text><text class="cls-6" transform="translate(38.31 22.84)">65</text><text class="cls-6" transform="translate(5.02 69.65)">55</text><text class="cls-6" transform="translate(4.38 127.61)">45</text><text class="cls-6" transform="translate(38.21 175.23)">35</text><text class="cls-6" transform="translate(94.31 193.14)">25</text><text class="cls-6" transform="translate(149.97 176.29)">15</text><text class="cls-6" transform="translate(185.59 128.03)">5</text><text class="cls-6" transform="translate(184.89 70.93)">95</text><text class="cls-6" transform="translate(151.43 23.41)">85</text></g></svg>